<svg width="70" height="32" viewBox="0 0 70 32" fill="none" xmlns="http://www.w3.org/2000/svg">
<g clip-path="url(#clip0_81_10774)">
<mask id="mask0_81_10774" style="mask-type:alpha" maskUnits="userSpaceOnUse" x="0" y="0" width="34" height="32">
<mask id="mask1_81_10774" style="mask-type:luminance" maskUnits="userSpaceOnUse" x="0" y="0" width="34" height="32">
<path d="M33.7219 0.318298H0V31.1984H33.7219V0.318298Z" fill="white"/>
</mask>
<g mask="url(#mask1_81_10774)">
<path d="M32.8121 20.0258L32.7811 20.0102C32.4489 19.8361 32.0547 20.0102 31.9306 20.3679C31.6885 21.0709 31.1918 21.6992 30.4375 22.0942L18.301 28.4705C17.4008 28.9464 16.3237 28.9464 15.4205 28.4705L3.28383 22.0942C2.52955 21.6992 2.03292 21.0709 1.7908 20.3679C1.66975 20.0134 1.27244 19.8361 0.940308 20.0102L0.909269 20.0258C-0.304392 20.6634 -0.304392 22.4021 0.909269 23.0397L16.0692 31.0055C16.5627 31.2637 17.1525 31.2637 17.646 31.0055L32.809 23.0397C34.0227 22.4021 34.0227 20.6634 32.809 20.0258H32.8121Z" fill="white"/>
<path d="M32.8123 14.312L32.7813 14.2964C32.4491 14.1222 32.0549 14.2964 31.9308 14.6541C31.6886 15.3571 31.192 15.9854 30.4377 16.3804L18.3012 22.7567C17.401 23.2326 16.3239 23.2326 15.4206 22.7567L3.28089 16.3804C2.52663 15.9854 2.02998 15.3571 1.78788 14.6541C1.66682 14.2995 1.26951 14.1222 0.937382 14.2964L0.906342 14.312C-0.307322 14.9496 -0.307322 16.6883 0.906342 17.326L16.0662 25.2917C16.5598 25.5498 17.1495 25.5498 17.6431 25.2917L32.8061 17.326C34.0198 16.6883 34.0198 14.9496 32.8061 14.312H32.8123Z" fill="white"/>
<path d="M0.90927 11.4917L1.97394 12.0485L3.67183 12.9412L6.95278 14.6612L9.03865 15.7591L16.4354 19.6409C16.7024 19.7809 17.0221 19.7809 17.2891 19.6409L19.6171 18.4185C20.8307 17.7809 20.8307 16.0422 19.6171 15.4046L14.6631 12.8012L12.5772 11.7063L12.1581 11.4855C10.991 10.8696 10.9476 9.23666 12.0278 8.54923C12.0681 8.52126 12.1147 8.49636 12.1581 8.47152L19.139 4.80434L20.9363 3.86189C21.5912 3.51663 21.5912 2.57729 20.9363 2.23514L17.6491 0.515094C17.1556 0.256931 16.5658 0.256931 16.0723 0.515094L0.90927 8.47775C-0.304392 9.11224 -0.304392 10.8541 0.90927 11.4917Z" fill="white"/>
<path d="M18.8199 8.47683C18.1928 8.80653 17.8887 9.43171 17.9135 10.0476C17.9353 10.6168 18.2363 11.1736 18.8106 11.4846C18.8137 11.4846 18.8168 11.4877 18.8199 11.4908L25.0248 14.7505C25.0248 14.7505 25.031 14.7505 25.0341 14.7536C25.5214 15.0118 26.1049 15.0118 26.5954 14.7536C26.5954 14.7536 26.6016 14.7536 26.6047 14.7505L26.7692 14.6635L30.0501 12.9372L31.748 12.0476L32.8127 11.4908C32.8127 11.4908 32.8189 11.4877 32.822 11.4846C34.0264 10.8438 34.0233 9.11138 32.8127 8.47683L26.6047 5.21403C26.583 5.2047 26.5644 5.19226 26.5395 5.18293C26.5302 5.17671 26.5209 5.1736 26.5116 5.16738C26.077 4.93721 25.5556 4.93721 25.121 5.16738C25.121 5.16738 25.0993 5.17671 25.0931 5.18293C25.0713 5.19226 25.0496 5.2047 25.0279 5.21403L22.4702 6.55772L20.1888 7.75835L18.823 8.47683H18.8199Z" fill="white"/>
</g>
</mask>
<g mask="url(#mask0_81_10774)">
<path d="M34.3438 -0.461487H-0.46582V31.8222H34.3438V-0.461487Z" fill="url(#paint0_linear_81_10774)"/>
<path style="mix-blend-mode:overlay" opacity="0.49" d="M13.7688 26.0244C22.2226 26.0244 29.0758 19.1466 29.0758 10.6623C29.0758 2.17811 22.2226 -4.69971 13.7688 -4.69971C5.31505 -4.69971 -1.53809 2.17811 -1.53809 10.6623C-1.53809 19.1466 5.31505 26.0244 13.7688 26.0244Z" fill="url(#paint1_radial_81_10774)"/>
</g>
<mask id="mask2_81_10774" style="mask-type:luminance" maskUnits="userSpaceOnUse" x="40" y="4" width="30" height="22">
<path d="M70.0004 4.95026H40.9619V25.9873H70.0004V4.95026Z" fill="white"/>
</mask>
<g mask="url(#mask2_81_10774)">
<path d="M40.9619 25.9872V4.97595H44.1374V23.1986H51.8947V25.9872H40.9619Z" fill="white"/>
<path d="M54.0459 25.9873V4.97601H65.4669V7.70348H57.2214V14.2274H64.4298V16.9838H57.2214V25.9873H54.0459Z" fill="white"/>
<path d="M67.1299 7.70669V4.95026H70.0005V7.70669H67.1299ZM67.1299 25.9873V9.87705H70.0005V25.9873H67.1299Z" fill="white"/>
</g>
</g>
<defs>
<linearGradient id="paint0_linear_81_10774" x1="-0.46582" y1="15.6804" x2="34.3438" y2="15.6804" gradientUnits="userSpaceOnUse">
<stop offset="0.34" stop-color="#0066B3"/>
<stop offset="1" stop-color="#828487"/>
</linearGradient>
<radialGradient id="paint1_radial_81_10774" cx="0" cy="0" r="1" gradientUnits="userSpaceOnUse" gradientTransform="translate(13.7688 10.6623) scale(15.3069 15.362)">
<stop stop-color="white"/>
<stop offset="1" stop-color="#828487" stop-opacity="0"/>
</radialGradient>
<clipPath id="clip0_81_10774">
<rect width="70" height="31.4286" fill="white"/>
</clipPath>
</defs>
</svg>
