<svg width="38" height="35" viewBox="0 0 38 35" fill="none" xmlns="http://www.w3.org/2000/svg">
<mask id="mask0_131_123" style="mask-type:alpha" maskUnits="userSpaceOnUse" x="0" y="0" width="38" height="35">
<mask id="mask1_131_123" style="mask-type:luminance" maskUnits="userSpaceOnUse" x="0" y="0" width="38" height="35">
<path d="M37.72 0H0V34.5413H37.72V0Z" fill="white"/>
</mask>
<g mask="url(#mask1_131_123)">
<path d="M36.7028 22.0441L36.668 22.0267C36.2965 21.8319 35.8556 22.0267 35.7167 22.4268C35.4459 23.2131 34.8904 23.9159 34.0466 24.3577L20.4711 31.4901C19.4642 32.0223 18.2595 32.0223 17.2491 31.4901L3.67352 24.3577C2.82982 23.9159 2.2743 23.2131 2.00348 22.4268C1.86808 22.0302 1.42366 21.8319 1.05215 22.0267L1.01743 22.0441C-0.340121 22.7573 -0.340121 24.7021 1.01743 25.4154L17.9748 34.3255C18.5268 34.6144 19.1865 34.6144 19.7385 34.3255L36.6993 25.4154C38.0569 24.7021 38.0569 22.7573 36.6993 22.0441H36.7028Z" fill="white"/>
<path d="M36.7026 15.6528L36.6679 15.6354C36.2963 15.4406 35.8554 15.6354 35.7165 16.0355C35.4457 16.8218 34.8902 17.5246 34.0465 17.9665L20.471 25.0988C19.4641 25.631 18.2593 25.631 17.2489 25.0988L3.66986 17.9665C2.82616 17.5246 2.27064 16.8218 1.99982 16.0355C1.86441 15.6389 1.42 15.4406 1.04849 15.6354L1.01377 15.6528C-0.343784 16.366 -0.343784 18.3109 1.01377 19.0241L17.9711 27.9343C18.5232 28.2231 19.1828 28.2231 19.7349 27.9343L36.6957 19.0241C38.0532 18.3109 38.0532 16.366 36.6957 15.6528H36.7026Z" fill="white"/>
<path d="M1.01707 12.4978L2.20797 13.1205L4.10716 14.1191L7.7771 16.043L10.1103 17.2712L18.3841 21.6132C18.6827 21.7697 19.0403 21.7697 19.3389 21.6132L21.9429 20.2459C23.3004 19.5326 23.3004 17.5878 21.9429 16.8746L16.4016 13.9625L14.0684 12.7378L13.5996 12.4908C12.2942 11.8019 12.2456 9.97536 13.4538 9.20644C13.4989 9.17514 13.5511 9.14729 13.5996 9.11951L21.4082 5.01754L23.4185 3.96335C24.1511 3.57716 24.1511 2.52645 23.4185 2.14373L19.7417 0.219752C19.1896 -0.069019 18.5299 -0.069019 17.9779 0.219752L1.01707 9.12648C-0.340488 9.83619 -0.340488 11.7845 1.01707 12.4978Z" fill="white"/>
<path d="M21.0507 9.12585C20.3493 9.49463 20.009 10.1939 20.0369 10.8828C20.0612 11.5196 20.3979 12.1423 21.0403 12.4902C21.0438 12.4902 21.0472 12.4937 21.0507 12.4972L27.9912 16.1434C27.9912 16.1434 27.9982 16.1434 28.0016 16.1468C28.5468 16.4356 29.1995 16.4356 29.748 16.1468C29.748 16.1468 29.755 16.1468 29.7585 16.1434L29.9425 16.046L33.6124 14.115L35.5116 13.1199L36.7025 12.4972C36.7025 12.4972 36.7095 12.4937 36.7129 12.4902C38.0601 11.7735 38.0566 9.83564 36.7025 9.12585L29.7585 5.47621C29.7342 5.46577 29.7134 5.45185 29.6856 5.44142C29.6752 5.43446 29.6647 5.43097 29.6544 5.42402C29.1682 5.16656 28.5849 5.16656 28.0989 5.42402C28.0989 5.42402 28.0746 5.43446 28.0676 5.44142C28.0433 5.45185 28.019 5.46577 27.9947 5.47621L25.1337 6.9792L22.5819 8.32219L21.0541 9.12585H21.0507Z" fill="white"/>
</g>
</mask>
<g mask="url(#mask0_131_123)">
<path d="M38.4153 -0.872223H-0.521362V35.2391H38.4153V-0.872223Z" fill="#616161"/>
<path style="mix-blend-mode:overlay" opacity="0.49" d="M15.4008 28.7538C24.8568 28.7538 32.5226 21.0606 32.5226 11.5704C32.5226 2.08032 24.8568 -5.61295 15.4008 -5.61295C5.94472 -5.61295 -1.72095 2.08032 -1.72095 11.5704C-1.72095 21.0606 5.94472 28.7538 15.4008 28.7538Z" fill="url(#paint0_radial_131_123)"/>
</g>
<defs>
<radialGradient id="paint0_radial_131_123" cx="0" cy="0" r="1" gradientUnits="userSpaceOnUse" gradientTransform="translate(15.4008 11.5704) scale(17.1217 17.1834)">
<stop stop-color="white"/>
<stop offset="1" stop-color="#828487" stop-opacity="0"/>
</radialGradient>
</defs>
</svg>
