<?xml version="1.0" standalone="no"?>
<!DOCTYPE svg PUBLIC "-//W3C//DTD SVG 20010904//EN"
 "http://www.w3.org/TR/2001/REC-SVG-20010904/DTD/svg10.dtd">
<svg version="1.0" xmlns="http://www.w3.org/2000/svg"
 width="328.000000pt" height="328.000000pt" viewBox="0 0 328.000000 328.000000"
 preserveAspectRatio="xMidYMid meet">
<metadata>
Created by potrace 1.14, written by Peter Selinger 2001-2017
</metadata>
<g transform="translate(0.000000,328.000000) scale(0.100000,-0.100000)"
fill="#000000" stroke="none">
<path d="M1520 3258 c-53 -19 -501 -270 -652 -365 -21 -12 -39 -23 -41 -23 -2
0 -71 -39 -153 -86 -82 -48 -165 -95 -184 -106 -77 -44 -100 -61 -119 -87 -41
-58 -30 -119 31 -164 41 -31 677 -397 689 -397 5 0 9 -4 9 -10 0 -5 4 -10 9
-10 5 0 64 -32 132 -72 265 -153 306 -170 423 -167 100 3 167 27 306 110 19
12 107 63 195 114 88 51 237 136 330 190 94 54 208 120 255 147 146 84 154 89
178 111 45 42 44 115 -2 163 -17 18 -253 157 -633 375 -17 10 -123 71 -235
135 -111 65 -225 126 -253 137 -29 11 -86 21 -135 23 -71 4 -96 1 -150 -18z
m267 -168 c23 -10 111 -59 195 -108 84 -49 173 -100 198 -114 216 -120 459
-265 478 -285 14 -15 22 -37 22 -58 0 -21 -8 -43 -22 -58 -13 -14 -129 -86
-258 -160 -129 -74 -251 -144 -270 -156 -19 -11 -42 -24 -50 -28 -8 -4 -43
-24 -78 -45 -34 -21 -64 -38 -66 -38 -2 0 -34 -18 -70 -40 -117 -71 -231 -86
-338 -43 -24 9 -103 52 -176 95 -73 43 -137 78 -142 78 -6 0 -10 5 -10 10 0 6
-4 10 -9 10 -19 0 -517 293 -538 316 -30 33 -30 85 0 118 12 13 157 102 322
196 165 95 314 180 330 190 245 141 271 151 374 144 36 -3 84 -13 108 -24z"/>
<path d="M1540 2916 c-36 -18 -105 -56 -155 -86 -49 -29 -115 -66 -145 -83
-30 -16 -66 -37 -80 -46 -45 -29 -64 -40 -118 -68 -81 -42 -114 -74 -114 -108
0 -19 8 -36 23 -48 31 -25 551 -323 607 -349 56 -25 138 -25 194 0 52 23 568
320 605 348 49 37 31 89 -47 132 -19 10 -147 84 -285 164 -317 184 -288 170
-359 174 -53 3 -70 -1 -126 -30z m-187 -307 c38 -20 57 -41 57 -64 0 -93 -232
-115 -279 -27 -22 41 16 85 89 103 33 9 106 2 133 -12z"/>
<path d="M188 2308 c-48 -41 -49 -46 -63 -518 -3 -96 -7 -239 -10 -317 -14
-409 -15 -508 -1 -560 39 -145 117 -233 308 -342 18 -10 161 -98 318 -196 157
-98 297 -185 312 -194 15 -9 84 -51 153 -94 69 -43 141 -81 160 -84 50 -8 93
13 115 57 22 43 22 54 55 1138 5 171 -3 231 -41 309 -51 103 -95 139 -391 323
-153 95 -296 184 -318 198 -22 15 -49 32 -60 38 -11 6 -85 52 -165 102 -230
145 -249 155 -299 159 -37 3 -51 0 -73 -19z m293 -273 c38 -25 73 -45 78 -45
5 0 11 -4 13 -8 2 -4 39 -29 83 -55 231 -138 594 -370 628 -402 41 -40 80
-110 92 -165 8 -33 8 -195 0 -360 -3 -64 -9 -257 -19 -609 -3 -81 -4 -86 -35
-113 -18 -17 -43 -28 -59 -28 -19 0 -102 45 -248 136 -120 75 -310 193 -422
262 -112 69 -218 141 -237 160 -68 70 -105 172 -99 272 1 25 5 137 8 250 9
284 23 678 25 691 0 3 12 18 26 33 38 41 83 36 166 -19z"/>
<path d="M465 1797 c-25 -21 -27 -28 -30 -127 -1 -58 -6 -206 -10 -330 -4
-124 -8 -236 -8 -250 -2 -53 15 -107 47 -150 26 -35 72 -69 202 -149 93 -58
229 -142 302 -187 156 -97 174 -103 211 -62 11 12 20 31 19 42 0 12 3 134 8
271 13 402 12 453 -13 501 -12 22 -37 54 -55 70 -26 23 -311 206 -433 277 -10
7 -49 31 -85 54 -55 35 -110 63 -125 63 -2 0 -16 -10 -30 -23z"/>
<path d="M2969 2276 c-21 -7 -63 -28 -95 -46 -69 -38 -104 -58 -234 -130 -181
-100 -203 -112 -252 -141 -27 -16 -50 -29 -52 -29 -2 0 -107 -58 -234 -129
-239 -133 -291 -172 -343 -253 -60 -93 -67 -136 -73 -449 -18 -914 -18 -973
-1 -1016 32 -80 102 -88 220 -24 162 88 191 105 220 121 39 23 111 63 205 113
41 22 80 43 85 47 6 4 71 41 145 82 74 42 158 88 185 103 28 15 78 43 112 62
125 69 202 162 238 286 18 61 17 44 30 889 6 378 5 430 -9 460 -27 56 -83 77
-147 54z m-38 -247 c45 -24 45 -29 33 -689 -1 -85 -3 -202 -4 -259 -2 -138
-26 -212 -92 -291 -20 -24 -77 -64 -143 -100 -33 -18 -74 -41 -92 -51 -18 -10
-63 -35 -100 -55 -37 -20 -72 -40 -78 -44 -5 -4 -39 -23 -75 -42 -102 -56
-155 -85 -298 -166 -135 -75 -165 -84 -206 -63 -42 23 -48 46 -46 190 3 334
11 781 15 839 6 100 63 204 140 258 26 18 245 142 460 260 33 18 141 77 240
132 181 100 199 106 246 81z"/>
<path d="M2663 1748 c-43 -22 -95 -52 -115 -64 -21 -13 -39 -24 -42 -24 -2 0
-47 -25 -101 -55 -53 -30 -98 -55 -101 -55 -2 0 -38 -20 -80 -45 -41 -25 -79
-45 -83 -45 -20 0 -91 -75 -111 -117 -21 -45 -23 -65 -26 -283 -3 -129 -6
-291 -8 -360 -3 -132 4 -165 38 -177 33 -11 39 -11 71 7 17 10 61 34 98 54 37
20 84 46 105 58 20 11 66 36 102 56 36 19 106 58 155 86 50 28 103 58 118 66
40 20 87 82 102 135 14 46 31 720 19 757 -3 10 -18 25 -34 33 -27 14 -32 13
-107 -27z"/>
</g>
</svg>
